<?xml version="1.0" encoding="UTF-8" standalone="no"?>
<!-- Created with Inkscape (http://www.inkscape.org/) -->

<svg
   version="1.1"
   id="svg1"
   width="801.52271"
   height="800.427"
   viewBox="0 0 801.5227 800.427"
   sodipodi:docname="sumeh-pb.svg"
   inkscape:version="1.4 (e7c3feb1, 2024-10-09)"
   xmlns:inkscape="http://www.inkscape.org/namespaces/inkscape"
   xmlns:sodipodi="http://sodipodi.sourceforge.net/DTD/sodipodi-0.dtd"
   xmlns:xlink="http://www.w3.org/1999/xlink"
   xmlns="http://www.w3.org/2000/svg"
   xmlns:svg="http://www.w3.org/2000/svg">
  <defs
     id="defs1">
    <linearGradient
       id="linearGradient1"
       inkscape:collect="always">
      <stop
         style="stop-color:#ffea16;stop-opacity:1;"
         offset="0"
         id="stop1" />
      <stop
         style="stop-color:#ffffff;stop-opacity:1;"
         offset="1"
         id="stop2" />
    </linearGradient>
    <linearGradient
       inkscape:collect="always"
       xlink:href="#linearGradient1"
       id="linearGradient2"
       x1="175.96347"
       y1="510.98557"
       x2="848.39868"
       y2="510.98557"
       gradientUnits="userSpaceOnUse"
       gradientTransform="rotate(-45,512.10049,510.91999)" />
  </defs>
  <sodipodi:namedview
     id="namedview1"
     pagecolor="#505050"
     bordercolor="#eeeeee"
     borderopacity="1"
     inkscape:showpageshadow="0"
     inkscape:pageopacity="0"
     inkscape:pagecheckerboard="0"
     inkscape:deskcolor="#505050"
     showgrid="false"
     inkscape:zoom="0.41017706"
     inkscape:cx="276.70977"
     inkscape:cy="198.69468"
     inkscape:window-width="1472"
     inkscape:window-height="916"
     inkscape:window-x="0"
     inkscape:window-y="38"
     inkscape:window-maximized="0"
     inkscape:current-layer="g1"
     showborder="false" />
  <g
     inkscape:groupmode="layer"
     inkscape:label="Image"
     id="g1"
     transform="translate(-133.81083,-133.80393)">
    <path
       id="path1"
       style="fill:url(#linearGradient2);stroke-width:49.3"
       d="m 606.04102,133.85352 c -8.64664,-0.38418 -17.20614,1.47383 -24.88282,5.22265 -20.36989,9.94741 -35.22221,32.61018 -32.73437,59.32422 3.72229,39.96979 35.80275,65.10376 62.1582,84.69141 48.13088,35.77134 110.07223,64.14532 140.11719,110.80078 13.43985,20.87013 14.71998,43.93013 6.83594,62.26172 -7.8973,18.36239 -24.5277,32.17757 -50.18555,34.71484 -17.48384,1.72893 -32.42783,-1.99747 -47.91602,-10.74805 -2.74365,-1.55012 -5.66211,-2.93236 -7.80468,-4.25781 -0.97064,-0.60046 -1.79537,-1.26323 -2.34375,-1.76758 -0.12443,-0.11443 -0.17057,-0.17049 -0.26368,-0.26367 0.0605,-0.14648 -0.13394,-1.24659 -0.0137,-2.92187 0.15397,-2.14469 0.57445,-4.98103 1.26953,-8.02149 1.41475,-6.18848 3.9436,-13.68845 2.875,-22.0332 -1.64164,-12.81965 -9.36857,-23.49902 -17.62304,-32.61524 -8.2826,-9.14728 -17.66896,-16.97244 -24.30274,-22.75586 -41.57232,-36.24341 -85.27098,-69.82731 -131.83789,-98.7539 2.81922,-2.24183 4.72537,-4.93016 6.06055,-7.38672 2.78773,-5.12925 4.03564,-10.36449 4.84765,-12.83008 7.06727,-21.45854 3.17296,-47.90687 -18.39257,-61.88867 -17.60672,-11.41509 -40.00537,-11.33397 -55.63672,-12.7168 -48.00378,-4.24671 -91.66783,5.07205 -136.36914,8.43555 -7.87741,0.59273 -19.47219,-1.2271 -31.61328,-1.29883 -12.21542,-0.0722 -26.31026,2.12771 -36.82422,13.08203 -10.68525,11.1328 -12.38651,25.15389 -11.88282,37.07617 0.49908,11.81314 2.49988,22.7707 1.66602,30.625 -4.64286,43.73242 -12.29093,86.63303 -8.8418,132.9668 1.20002,16.11986 1.285,39.211 12.60157,57.14649 13.67788,21.67789 39.3133,26.90897 61.45898,19.67187 2.56062,-0.83679 7.95654,-2.24535 13.20117,-5.08594 2.29663,-1.2439 4.73649,-2.99348 6.92969,-5.34765 25.17654,40.68514 54.26288,79.39359 85.08203,114.74414 14.97904,17.18144 34.13804,44.19922 60.66992,54.77539 11.45697,4.567 23.1458,3.32332 32.73242,1.56836 3.4039,-0.62311 6.31489,-1.61045 8.37891,-2.04883 0.80528,-0.17103 1.41905,-0.21376 1.93945,-0.24023 0.24679,0.2757 0.48895,0.52238 0.75,0.91406 0.95462,1.43229 2.08235,3.62517 3.39844,5.81836 10.7557,17.92366 14.68107,43.46005 9.57422,64.49414 -5.13078,21.13269 -17.60215,37.2352 -41.5293,41.87304 -7.14315,1.38457 -15.76856,1.46496 -23.16211,0.34961 -23.21727,-3.50236 -42.44462,-20.02826 -59.00586,-39.08593 -32.26202,-37.12521 -57.03881,-81.90855 -88.44921,-122.83008 -11.50958,-14.99469 -25.94824,-30.90481 -43.70118,-41.44336 -17.80884,-10.57175 -39.72457,-15.34678 -62.52539,-6.64453 -19.32754,7.37663 -35.99735,25.11998 -36.89453,47.71484 -1.43779,36.20974 35.47678,63.02301 69.45508,54.4375 5.73266,-1.44852 10.98207,-4.9505 14.32227,-10.41015 1.74983,-2.86015 3.03922,-6.6441 2.54492,-10.88282 -0.50811,-4.3571 -2.86049,-8.20797 -6.13672,-10.99609 -5.13085,-4.36649 -11.29193,-4.7446 -15.43555,-4.46484 -3.93005,0.26533 -7.37011,0.8139 -7.93359,0.79882 -3.17274,-0.0849 -7.24519,-1.28685 -10.73047,-3.21679 -3.48528,-1.92994 -6.34017,-4.60313 -7.5625,-6.92969 -2.68007,-5.10122 -1.81144,-8.44931 1.67383,-13.12695 3.29603,-4.42366 9.82272,-8.37445 14.98242,-9.24024 13.05669,-2.19088 26.23527,4.6834 38.86133,14.14649 12.89816,9.66704 23.45712,26.24453 34.51172,41.75586 24.95892,35.02119 47.04819,73.24503 76.61523,107.18554 21.50707,24.68835 50.0881,46.95753 85.46094,51.45117 52.99743,6.73265 98.54416,-36.88838 105.36523,-87.06836 3.79544,-27.92168 -4.33766,-57.00336 -20.90429,-79.60351 34.54953,-22.66326 65.08681,-48.43024 92.64648,-80.06641 9.99851,-11.47748 18.53064,-23.95307 26.58203,-36.03125 2.09433,-3.14167 3.63517,-6.45504 5.14844,-9.05468 0.12195,-0.20951 0.19143,-0.23807 0.31055,-0.42969 1.32309,1.27222 2.91745,2.75084 5.28125,4.27344 13.15831,8.47589 28.46287,14.01749 43.45507,16.75195 59.64409,10.87854 121.27098,-36.97928 118.95899,-98.9961 -1.24726,-33.45752 -21.235,-61.90884 -42.45703,-83.13085 -40.62712,-40.62712 -91.99339,-66.59441 -135.13477,-98.82227 -10.28124,-7.68041 -24.08033,-20.78953 -31.78515,-34.03906 -3.8547,-6.62872 -6.17217,-13.23537 -6.49219,-19.01758 -0.32511,-5.87389 0.92432,-10.83924 5.34375,-16.47852 4.9783,-6.3524 9.82124,-7.78264 14.26172,-7.1582 4.40605,0.61961 8.91068,3.51217 12.07031,10.81641 0.90592,2.09423 1.06477,4.44044 1.01172,7.8164 -0.0531,3.37596 -0.31078,7.6316 0.25586,12.84375 0.53019,4.87725 2.86348,9.49433 6.82031,12.66602 4.14403,3.3217 9.95185,4.6727 15.57227,3.02148 6.10154,-1.79261 9.95045,-6.40536 11.9707,-10.59961 1.93231,-4.0117 2.60818,-7.8892 3.0293,-10.73828 2.06965,-14.00232 -1.20544,-29.028 -9.95118,-40.73047 -10.75118,-14.38594 -25.38803,-21.3773 -39.79882,-22.01757 z m -224.97266,94.29492 c 11.83335,-0.0379 23.64828,0.42139 35.43164,1.47461 13.0062,1.1625 27.76552,1.96912 35.0957,6.18554 2.3538,1.35395 3.23173,2.39834 3.77735,3.59375 0.54561,1.19542 0.78328,2.91542 0.71679,5.60938 -0.1216,4.92774 -2.25399,12.18076 -4.19336,18.9668 -0.48931,1.71219 -0.9058,3.70688 -1.12304,5.83789 -27.85104,-15.68881 -56.79386,-29.52797 -86.89844,-41.26368 5.73357,-0.24057 11.46603,-0.38595 17.19336,-0.40429 z m -131.95899,7.88672 c 4.66592,-0.0389 10.06064,0.57583 14.54688,1.32617 30.60496,5.11878 60.14647,13.9803 89.15039,25.58398 76.24456,30.50336 150.73967,74.90982 211.24414,130.29492 12.94913,11.85348 25.8263,23.06459 37.83789,35.07618 6.95267,6.95266 12.10113,11.67643 13.79297,17.55078 2.08038,7.22342 0.48868,16.04481 -3.58789,25.53906 -4.07658,9.49426 -10.42735,19.2246 -15.91602,27.68359 -25.73631,39.66436 -61.89791,76.53407 -102.35742,100.48828 -6.98978,4.13833 -15.74153,8.93767 -24.18945,12.28125 -8.44792,3.34359 -16.60824,5.02052 -21.75977,3.88086 -5.41478,-1.19791 -13.93171,-7.46945 -21.69726,-15.75976 -7.80704,-8.3346 -15.20038,-18.23168 -22.00196,-25.65625 -43.48253,-47.46541 -82.81678,-101.53438 -111.5371,-158.9668 -21.17673,-42.34739 -39.60144,-86.46446 -50.25391,-132.01758 -1.7064,-7.29702 -4.35385,-16.79325 -5.51953,-25.54492 -1.15265,-8.65379 0.0268,-16.47303 1.58594,-18.7539 0.32723,-0.47872 0.61799,-0.78331 1.0371,-1.11133 1.07691,-0.84292 4.95843,-1.85562 9.625,-1.89453 z M 229.36914,362.9668 c 8.11339,20.62867 16.41196,41.54272 26.53711,61.79297 4.28704,8.57411 8.88739,17.02084 13.58789,25.41796 -1.47498,0.22317 -2.92006,0.48574 -4.12305,0.80469 -6.65356,1.7641 -14.14149,3.94134 -19.41406,4.10742 -2.85184,0.0898 -4.716,-0.14565 -5.9043,-0.66015 -1.18829,-0.5145 -2.08304,-1.2551 -3.26171,-3.44141 -4.80554,-8.91371 -5.73261,-24.92906 -6.76758,-38.96484 -1.21061,-16.41772 -1.31936,-32.71737 -0.6543,-49.05664 z m 638.07813,102.08593 c -33.46854,1.26689 -57.43874,19.704 -79.0879,36.76172 -21.64221,17.05224 -41.23631,32.74064 -67.17773,35.48633 -19.4119,2.05466 -37.70363,1.24451 -55.23828,-5.0957 -1.20564,-0.43593 -5.13644,-2.46635 -9.61524,-3.89649 -4.58249,-1.46325 -11.82145,-2.66723 -18.13867,1.87305 -1.82443,1.31124 -3.35423,2.96487 -4.57422,4.81836 -2.90371,4.41169 -3.71155,9.78706 -2.20312,14.54492 1.38786,4.37757 4.18803,7.43526 6.74023,9.6211 1.20471,1.03177 2.44864,1.93218 3.69141,2.7539 -6.61916,-3.29002 -15.5689,-3.7459 -22.25195,1.79102 -0.9614,0.79653 -1.86285,1.71189 -2.6836,2.74414 -0.96022,1.20747 -1.7676,2.54572 -2.40429,3.97851 -1.86888,4.20575 -2.07312,8.86369 -0.61329,12.94532 1.37221,3.83664 3.82336,6.5613 6.04102,8.50976 4.42473,3.8876 9.38721,6.13067 11.28125,7.24219 17.47262,10.25384 37.29794,18.53512 57.38281,23.00781 30.82618,6.86471 59.48481,1.24749 87.15235,-10.375 26.90122,-11.30064 50.77519,-26.01458 74.77148,-20.23437 13.58968,3.27348 25.59289,16.43087 41.71289,27.20507 3.97813,2.65891 9.00999,4.56422 14.66211,4.1836 6.23649,-0.41996 12.59653,-4.39911 15.32813,-11.22266 1.51672,-3.78882 1.76444,-7.91266 0.62304,-11.6582 -1.08958,-3.57553 -3.16168,-6.21877 -5.05468,-8.11328 -3.71346,-3.71671 -7.82399,-5.99807 -9.02149,-6.9336 -12.05252,-9.41594 -23.44215,-21.46128 -41.86133,-27.72265 -8.18349,-2.78187 -16.22134,-4.15465 -24.0664,-4.45313 -23.53566,-0.89543 -45.18131,7.74708 -65.42774,16.2793 -26.97851,11.36924 -51.84603,22.44391 -77.81836,17.86133 -17.39331,-3.06886 -32.992,-12.04372 -50.13476,-21.10352 1.11328,0.46515 2.40893,1.09349 3.30859,1.41992 21.31466,7.73382 44.22802,10.03544 66.22852,8.79102 a 4.0003993,4.0003993 0 0 0 0.006,0.002 c 28.29375,-1.6013 53.73903,-13.33528 75.00976,-30.47851 24.1182,-19.43815 41.45598,-39.63394 68.61914,-42.98633 16.44831,-2.02997 27.37849,3.4836 44.95117,10.35742 3.48444,1.36297 7.77273,2.33188 12.50977,1.60352 5.13898,-0.79017 10.4758,-4.00085 13.25,-9.66016 1.81925,-3.71116 2.49844,-7.90969 1.58594,-11.91992 -0.88523,-3.8904 -3.02102,-6.84817 -5.11328,-8.94922 -4.07213,-4.08925 -8.71475,-6.1404 -11.19141,-7.46094 -15.77809,-8.41279 -33.53664,-12.18533 -51.17773,-11.51758 z M 608.50195,590.9375 c -4.14548,0.28586 -8.26377,1.9708 -11.41015,5.11719 -3.85554,3.85553 -5.63809,9.10657 -5.11133,14.09375 0.49397,4.67674 2.70406,8.50948 5.25781,11.41406 10.04864,11.42927 19.30302,22.23838 27.00977,34.42969 13.92547,22.02862 18.62767,47.14814 14.14648,72.9414 -4.87581,28.06471 -19.89617,60.41349 -6.74609,95.14649 8.72596,23.0477 29.28934,37.70898 42.41601,50.99219 5.0744,5.135 12.36161,6.74752 18.70899,4.87304 6.45029,-1.9049 11.79816,-7.52275 12.97461,-14.92773 1.18371,-7.45087 -2.83252,-13.23057 -5.92578,-16.67383 -3.07136,-3.41888 -6.43797,-6.09031 -7.42383,-7.07617 -10.90254,-10.90253 -23.44855,-21.21141 -26.74024,-30.72266 -4.03716,-11.66532 -2.73284,-23.11895 0.52735,-36.07031 2.14732,-8.53042 5.02233,-17.63805 7.43164,-27.13672 22.02319,15.76769 43.64456,40.37825 56.21875,62.60938 4.93899,8.73215 7.97076,17.84367 11.01562,28.36523 0.89579,3.09534 2.39883,6.45559 4.92578,9.53906 2.59339,3.16456 6.64993,6.28774 12.07813,6.98633 8.31646,1.07027 15.44708,-3.8861 18.30273,-10.15234 2.49672,-5.47862 2.51461,-11.11479 1.50977,-15.90625 -3.2903,-15.68896 -11.05666,-30.1378 -18.45508,-42.42969 -12.94165,-21.50157 -31.74407,-41.68911 -50.66797,-57.32422 -5.33372,-4.40677 -11.68113,-8.44056 -17.30078,-12.2168 -5.61965,-3.77624 -10.51754,-7.44052 -12.57227,-10.05078 0.47365,0.60171 -0.0548,-0.13804 -0.32031,-1.10937 -0.26549,-0.97134 -0.52904,-2.34163 -0.67773,-3.9043 -0.30878,-3.24507 -0.25297,-7.51773 -1.18164,-12.11328 -1.44799,-7.16532 -3.58797,-14.12924 -5.99024,-20.98047 5.75613,2.15405 11.75094,4.2462 18.46485,5.63086 4.79471,0.98883 9.47743,1.03451 13.29492,1.42969 1.84349,0.19083 3.54015,0.50905 4.80664,0.83984 1.26649,0.33079 2.26887,0.8998 1.84961,0.59961 2.31873,1.66021 6.55805,6.79647 10.37695,12.55664 3.84386,5.7978 7.6737,12.34221 12.1836,17.80078 15.58409,18.86234 35.80107,36.93515 56.99023,49.61719 12.19819,7.30086 26.67606,14.92613 41.79492,18.64648 5.02352,1.23622 10.64768,1.05222 15.97266,-1.29101 5.84821,-2.57347 11.11154,-8.67603 11.11328,-16.65039 10e-4,-5.08018 -2.22864,-9.36994 -4.99414,-12.34961 -2.66675,-2.87327 -5.83519,-4.73259 -8.92383,-5.90235 -11.18384,-4.23566 -20.8159,-6.11437 -28.9707,-10.41406 -25.18771,-13.28051 -48.93184,-34.49699 -65.17188,-58.41797 23.3225,-6.06466 47.49121,-12.26081 65.00586,-5.22265 8.96198,3.60133 18.5536,16.37978 29.42383,27.25 1.2379,1.23791 3.76692,4.36478 7.3418,7.17383 3.78324,2.97269 9.91199,5.95109 16.89257,4.16015 4.57391,-1.17348 9.01678,-3.64486 11.625,-8.00781 2.61649,-4.37677 2.48801,-9.13999 1.55274,-12.72656 -1.75345,-6.72409 -5.93258,-11.44379 -9.125,-14.63868 -12.41678,-12.4264 -25.95323,-31.12298 -47.78711,-38.89453 -34.23427,-12.18535 -65.60767,2.97189 -92.76172,7.51368 -27.41343,4.58514 -52.64818,-0.11876 -75.66992,-15.41602 -11.71508,-7.78428 -22.34563,-18.19301 -35.40234,-27.66016 -3.49685,-2.53545 -7.73727,-3.62569 -11.88282,-3.33984 z m -29.23437,21.89062 c -3.77751,-0.13695 -7.66065,1.09184 -10.82617,3.66407 -1.74014,1.41401 -3.15279,3.1157 -4.30079,4.95898 -4.40663,7.0752 -2.80706,14.94517 -0.37109,20.04883 2.26724,4.75018 5.17584,8.58215 5.92188,9.99609 7.92048,15.01144 15.61311,31.81695 18.30273,47.06055 3.51321,19.91139 -0.85648,41.86515 -9.08008,61.44141 -11.02135,26.23598 -29.67181,56.02294 -23.62109,91.4082 3.93444,23.00918 16.87213,40.45803 30.68359,55.89844 1.01587,1.13567 4.48214,6.34151 9.45313,10.34961 2.48463,2.00337 6.09128,4.2596 10.82617,4.5332 5.07484,0.29324 9.85186,-2.03434 13.28906,-5.66211 2.8947,-3.0552 4.73149,-6.90709 5.07617,-10.94531 0.33205,-3.8902 -0.6822,-7.29092 -1.88476,-9.92969 -2.36058,-5.17976 -5.82417,-8.86557 -7.30469,-10.82422 -11.08752,-14.66804 -22.53386,-27.28575 -23.86133,-41.20508 -2.00647,-21.03968 9.58588,-40.90663 18.99414,-64.27539 12.82917,-31.86572 20.53056,-63.15227 10.76563,-98.99218 -5.168,-18.96792 -13.44476,-37.21568 -22.75391,-53.9336 -2.23958,-4.022 -5.58082,-7.99704 -10.30273,-10.80273 -2.39491,-1.42299 -5.43413,-2.65961 -9.00586,-2.78907 z m -35.35742,16.38868 c -3.31142,0.29464 -6.63167,1.57696 -9.24024,4.15429 a 4.0003993,4.0003993 0 0 0 -0.002,0.004 c -2.3121,2.28509 -3.86006,5.02178 -5.07227,7.96094 -3.73942,9.06643 0.11525,17.21952 2.56446,23.49804 1.28118,3.28434 2.64243,6.54913 3.72461,9.25586 1.08217,2.70674 1.89386,5.11141 1.97265,5.51563 a 4.0003993,4.0003993 0 0 0 0,0.002 c 3.56302,18.27835 2.64734,40.2693 -2.46484,58.19531 -5.55355,19.47378 -19.3294,35.25815 -33.83985,52.65821 -14.51844,17.40966 -29.82647,36.78917 -33.89257,63.55468 -3.12909,20.5973 -0.54662,42.18058 8.96289,61.3379 1.39652,2.81336 3.77659,8.11769 8.17578,12.68945 2.20865,2.29527 5.35252,4.78393 9.66992,5.7832 4.59139,1.06269 9.46285,-0.0157 13.47656,-2.67383 v 0.002 c 6.35088,-4.20595 8.43045,-11.45035 7.83399,-17.20899 -0.53696,-5.18412 -2.54596,-9.31396 -4,-12.1582 -7.71473,-15.09069 -10.23213,-31.05302 -6.59571,-47.43945 4.60702,-20.75971 19.38524,-34.54108 35.00782,-53.51368 16.41041,-19.9293 31.50654,-43.51935 36.17382,-71.0625 4.1322,-24.38555 1.62839,-51.81238 -6.70117,-75.09375 -1.47821,-4.13158 -4.44369,-10.56683 -8.93164,-16.37695 -2.18105,-2.8236 -4.98658,-6.01451 -9.36719,-7.97851 -1.33567,-0.59885 -2.74242,-0.93527 -4.17382,-1.08204 -1.07515,-0.11023 -2.17745,-0.12165 -3.28125,-0.0234 z" />
  </g>
</svg>
